<svg xmlns="http://www.w3.org/2000/svg" viewBox="0 0 24 24" fill="none" stroke="currentColor" stroke-width="1" stroke-linecap="round" stroke-linejoin="round" class="ai ai-PeopleGroup"><path d="M16.719 19.752l-.64-5.124A3 3 0 0 0 13.101 12h-2.204a3 3 0 0 0-2.976 2.628l-.641 5.124A2 2 0 0 0 9.266 22h5.468a2 2 0 0 0 1.985-2.248z"/><circle cx="12" cy="5" r="3"/><circle cx="4" cy="9" r="2"/><circle cx="20" cy="9" r="2"/><path d="M4 14h-.306a2 2 0 0 0-1.973 1.671l-.333 2A2 2 0 0 0 3.361 20H7"/><path d="M20 14h.306a2 2 0 0 1 1.973 1.671l.333 2A2 2 0 0 1 20.639 20H17"/></svg>